<?xml version="1.0" encoding="UTF-8" standalone="no"?>
<!-- Created with Inkscape (http://www.inkscape.org/) -->

<svg
   xmlns:dc="http://purl.org/dc/elements/1.1/"
   xmlns:cc="http://creativecommons.org/ns#"
   xmlns:rdf="http://www.w3.org/1999/02/22-rdf-syntax-ns#"
   xmlns:svg="http://www.w3.org/2000/svg"
   xmlns="http://www.w3.org/2000/svg"
   xmlns:sodipodi="http://sodipodi.sourceforge.net/DTD/sodipodi-0.dtd"
   xmlns:inkscape="http://www.inkscape.org/namespaces/inkscape"
   width="200"
   height="138"
   viewBox="0 0 52.916666 36.512505"
   version="1.1"
   id="svg8"
   inkscape:version="0.92.5 (2060ec1f9f, 2020-04-08)"
   sodipodi:docname="fish1.svg">
  <defs
     id="defs2" />
  <sodipodi:namedview
     id="base"
     pagecolor="#ffffff"
     bordercolor="#666666"
     borderopacity="1.0"
     inkscape:pageopacity="0.0"
     inkscape:pageshadow="2"
     inkscape:zoom="2.8284271"
     inkscape:cx="201.52055"
     inkscape:cy="113.3864"
     inkscape:document-units="mm"
     inkscape:current-layer="layer1"
     showgrid="false"
     inkscape:window-width="1920"
     inkscape:window-height="1017"
     inkscape:window-x="-8"
     inkscape:window-y="-8"
     inkscape:window-maximized="1"
     units="px"
     inkscape:pagecheckerboard="true" />
  <metadata
     id="metadata5">
    <rdf:RDF>
      <cc:Work
         rdf:about="">
        <dc:format>image/svg+xml</dc:format>
        <dc:type
           rdf:resource="http://purl.org/dc/dcmitype/StillImage" />
        <dc:title></dc:title>
      </cc:Work>
    </rdf:RDF>
  </metadata>
  <g
     inkscape:label="Layer 1"
     inkscape:groupmode="layer"
     id="layer1"
     style="display:inline"
     transform="translate(0,-260.48741)">
    <path
       style="fill:none;stroke:#000000;stroke-width:0.26458332px;stroke-linecap:butt;stroke-linejoin:miter;stroke-opacity:1"
       d="m 0.5244658,280.30386 c 1.3890625,-0.92605 1.7859374,-3.90261 1.7859374,-3.90261 l 0.4630205,-0.79375 1.12448,-0.39687 2.315104,0.99218 2.315104,1.05834 0.661458,0.19843 -0.992187,-2.84427 -0.529167,-6.08541 -0.396875,-3.83646 c 0,0 0.294595,-1.27263 0.727604,-1.71979 0.439212,-0.45358 1.7197916,-0.79375 1.7197916,-0.79375 0,0 4.1211987,-0.89433 6.2177077,-0.99219 2.714753,-0.12672 8.135937,0.52917 8.135937,0.52917 0,0 3.987539,0.45228 5.88698,1.05833 1.183961,0.37777 3.373437,1.5875 3.373437,1.5875 l 2.910417,2.64583 1.455208,1.45521 0.727604,0.13229 1.322917,2.64584 1.389062,1.71979 -0.06615,1.78594 1.719792,2.91041 2.447396,1.98438 4.497916,1.05833 2.38125,0.0661 -0.396875,0.92604 0.529167,0.66146 -0.529167,0.52917 -5.291666,0.59531 -2.050521,0.66146 -1.918229,1.32291 -2.050521,0.66146 -0.727604,0.79375 -1.918229,0.99219 -3.704167,0.99219 -2.447396,3.63802 c 0,0 -1.345132,1.43187 -2.182812,1.91823 -1.935636,1.12383 -6.35,2.18281 -6.35,2.18281 l 1.124479,-1.19062 1.190625,-3.3073 -3.505729,0.99219 2.778125,-2.71198 -1.5875,0.52917 c 0,0 -2.710732,1.76429 -4.233333,2.24896 -2.139505,0.68103 -6.680729,0.85989 -6.680729,0.85989 0,0 -2.2055177,0.18891 -3.1088543,-0.33073 -0.71101,-0.409 -1.252195,-1.18963 -1.455208,-1.98437 -0.330319,-1.2931 0.529167,-3.96875 0.529167,-3.96875 l 0.330729,-1.85208 -0.264583,-0.26459 -2.778125,2.05052 c 0,0 -1.619057,0.45999 -2.182809,0 -1.4473618,-1.18096 0.088945,-4.06985 -1.124479,-5.4901 -0.2447383,-0.28646 -1.0583333,-0.39688 -1.0583333,-0.39688 z"
       id="path4530"
       inkscape:connector-curvature="0"
       sodipodi:nodetypes="ccccccccccscacaccccccccccccccccccccccaccccccacaaccccaacc" />
    <path
       style="fill:#cccccc;fill-opacity:1;stroke-width:0.26458332"
       id="path4532"
       sodipodi:type="arc"
       sodipodi:cx="40.377331"
       sodipodi:cy="279.37781"
       sodipodi:rx="1.6205729"
       sodipodi:ry="1.7859374"
       sodipodi:start="0"
       sodipodi:end="6.2467254"
       sodipodi:open="true"
       d="m 41.997904,279.37781 a 1.6205729,1.7859374 0 0 1 -1.605802,1.78586 1.6205729,1.7859374 0 0 1 -1.635075,-1.75331 1.6205729,1.7859374 0 0 1 1.575995,-1.81782 1.6205729,1.7859374 0 0 1 1.663805,1.72017" />
    <path
       style="display:inline;fill:#ffffff;fill-opacity:1;stroke-width:0.22306919"
       id="path4532-2"
       sodipodi:type="arc"
       sodipodi:cx="40.564297"
       sodipodi:cy="279.36502"
       sodipodi:rx="1.4334842"
       sodipodi:ry="1.4351463"
       sodipodi:start="0"
       sodipodi:end="6.2467254"
       sodipodi:open="true"
       d="m 41.997781,279.36502 a 1.4334842,1.4351463 0 0 1 -1.420418,1.43509 1.4334842,1.4351463 0 0 1 -1.446312,-1.40893 1.4334842,1.4351463 0 0 1 1.394052,-1.46077 1.4334842,1.4351463 0 0 1 1.471725,1.3823" />
    <path
       style="display:inline;fill:#000000;fill-opacity:1;stroke-width:0.12995124"
       id="path4532-2-1"
       sodipodi:type="arc"
       sodipodi:cx="41.013851"
       sodipodi:cy="279.33859"
       sodipodi:rx="0.9836306"
       sodipodi:ry="0.70980442"
       sodipodi:start="0"
       sodipodi:end="6.2467254"
       sodipodi:open="true"
       d="m 41.997482,279.33859 a 0.9836306,0.70980442 0 0 1 -0.974665,0.70978 0.9836306,0.70980442 0 0 1 -0.992433,-0.69684 0.9836306,0.70980442 0 0 1 0.956573,-0.72248 0.9836306,0.70980442 0 0 1 1.009871,0.68367" />
    <path
       style="fill:#ffffff;fill-opacity:1;stroke-width:0.35355338"
       d="m 90.818056,133.93851 c 0.904772,-0.93348 1.697919,-2.68968 3.614811,-8.00395 1.350641,-3.74445 2.381805,-6.88199 2.291468,-6.97233 -0.09033,-0.0903 -2.566854,0.50906 -5.50338,1.33199 -2.936526,0.82292 -5.419284,1.41608 -5.51724,1.31812 -0.09795,-0.0979 1.658155,-1.89251 3.902473,-3.98789 2.244318,-2.09539 4.07814,-3.90515 4.075163,-4.02169 -0.0028,-0.11655 -0.131787,-0.41093 -0.286241,-0.65418 -0.469812,-0.73992 -5.896301,1.3393 -10.268007,3.9343 -5.31477,3.15479 -9.647952,5.29447 -12.514326,6.17943 -5.491759,1.69552 -16.512563,2.96227 -26.246711,3.01683 -6.023037,0.0338 -7.315127,-0.0545 -8.717731,-0.59582 -1.98399,-0.76565 -4.62602,-3.46441 -5.705953,-5.82847 -1.055084,-2.30967 -0.955789,-6.73113 0.263742,-11.74407 1.648686,-6.777 2.484017,-11.67526 2.095967,-12.290447 -0.939364,-1.489202 -1.281185,-1.353134 -6.732614,2.680037 -5.594215,4.13881 -6.686079,4.63506 -10.235498,4.65202 -1.274642,0.006 -2.07022,-0.19724 -2.695191,-0.68885 -0.989495,-0.77833 -2.051889,-2.77465 -2.009159,-3.775355 0.01589,-0.371984 0.10476,-0.463226 0.20624,-0.211732 0.09808,0.243067 0.316913,0.441941 0.486296,0.441941 0.652088,0 14.862306,-9.643504 14.742009,-10.004394 -0.06989,-0.209678 -0.276234,-0.428924 -0.458535,-0.487211 -0.182301,-0.05828 -3.592986,2.031553 -7.579301,4.644087 -3.986314,2.612533 -7.369092,4.629138 -7.517283,4.481342 -0.148192,-0.147796 -0.163111,-2.608757 -0.03316,-5.468806 0.222357,-4.893593 0.279914,-5.209811 0.976545,-5.365077 0.407144,-0.09074 4.38437,-0.80157 8.838279,-1.579613 4.453909,-0.778044 8.167545,-1.484154 8.252524,-1.569134 0.08498,-0.08498 0.0206,-0.375428 -0.143065,-0.64544 -0.247829,-0.408867 -1.745594,-0.236064 -8.959631,1.033698 -4.764132,0.838548 -8.84593,1.456032 -9.070661,1.372187 C 10.145158,85.046191 9.85398,84.489026 9.7228276,83.891892 9.389129,82.372575 7.7367319,80.850937 5.9252046,80.39479 4.430334,80.018376 4.3717236,79.948683 3.6290876,77.66452 L 2.8669987,75.320528 4.3766695,73.46706 c 0.830319,-1.019408 1.81491,-2.595549 2.1879802,-3.502537 0.3730699,-0.906988 0.8374082,-1.648001 1.0318625,-1.646693 0.1944544,0.0014 4.0034638,0.716618 8.4644658,1.589583 7.935046,1.552793 8.647732,1.594279 8.67746,0.505133 0.003,-0.109093 -3.614089,-0.888692 -8.037926,-1.732444 -4.423837,-0.843751 -8.2206335,-1.598503 -8.437326,-1.677229 -0.2741793,-0.09961 -0.1811456,-0.970444 0.3059421,-2.863747 0.3849606,-1.496337 0.7459216,-2.771699 0.8021355,-2.834137 0.056214,-0.06244 3.8621434,1.435148 8.4576214,3.327963 6.350568,2.615715 8.454066,3.342833 8.766561,3.030338 0.25651,-0.25651 0.284821,-0.523206 0.07527,-0.709087 -0.184732,-0.163868 -3.915604,-1.768622 -8.290827,-3.56612 -4.375224,-1.797497 -8.093838,-3.401254 -8.263588,-3.563906 -0.6208219,-0.594861 1.097599,-2.306208 2.89191,-2.880004 l 1.761487,-0.563302 5.075464,2.193205 c 2.791505,1.206264 6.348257,2.793086 7.903891,3.52627 2.902294,1.367877 7.627644,3.122082 7.839463,2.910261 0.06528,-0.06528 -0.81191,-2.809395 -1.94931,-6.098032 L 31.571207,52.93323 30.804682,43.740842 C 30.383093,38.685029 29.618131,30.357029 29.104765,25.234176 28.194425,16.149922 28.186719,15.87052 28.792717,13.920467 29.795586,10.693318 30.612437,9.651695 33.020689,8.5290894 35.771791,7.2466647 37.844431,6.7329056 46.310609,5.2348258 56.398488,3.4497886 60.010496,3.1319623 67.347036,3.3837976 81.127016,3.8568115 101.16248,6.2840237 110.274,8.584219 c 3.11743,0.7869908 5.44673,1.701262 9.75249,3.82793 5.57524,2.753682 5.73337,2.863938 10.96016,7.642183 2.91681,2.666505 6.65564,6.172532 8.3085,7.791171 2.2673,2.220348 3.31504,2.998951 4.26704,3.17093 1.214,0.219307 1.34806,0.403806 3.53554,4.865732 1.58925,3.24168 3.11109,5.69609 5.0555,8.153431 l 2.7818,3.51565 -0.24638,3.149563 -0.24639,3.149564 3.38057,5.751755 3.38057,5.751755 4.16029,3.363137 c 2.28815,1.849728 4.55802,3.611912 5.04416,3.915972 0.48614,0.304056 4.70226,1.446221 9.36916,2.538138 7.54183,1.764568 8.90787,1.985044 12.28598,1.982908 2.09039,-0.0014 3.8007,0.07393 3.8007,0.16722 0,0.09329 -0.25276,0.801347 -0.5617,1.573451 -0.54906,1.372247 -0.5411,1.43083 0.35365,2.60392 l 0.91536,1.200091 -0.72099,0.652487 c -0.58864,0.532713 -2.57564,0.864431 -10.82455,1.807107 -8.82142,1.008101 -10.58066,1.313815 -13.86319,2.409088 -2.06779,0.689956 -4.46859,1.724813 -5.33511,2.299684 -0.86652,0.574871 -1.63239,0.988316 -1.70194,0.918765 -0.0696,-0.06955 1.65722,-2.56381 3.83726,-5.542801 2.18004,-2.978992 3.98006,-5.643144 4.00004,-5.920333 0.11467,-1.591019 -1.3586,-0.0014 -6.32638,6.826006 l -5.54443,7.619924 -5.89047,0.0032 -5.89048,0.0032 -4.06586,-1.825287 -4.06587,-1.825286 -3.67697,-4.553538 c -3.3991,-4.209414 -4.20884,-4.914166 -4.53207,-3.944472 -0.0668,0.200493 1.45956,2.314824 3.39199,4.698509 l 3.5135,4.333978 -2.67186,4.118225 c -17.40643,26.829124 -20.48513,30.644604 -27.5405,34.131454 -3.56483,1.7616 -16.862542,6.2258 -18.545616,6.2258 -0.252196,0 0.06305,-0.53814 0.700552,-1.19588 z M 53.58211,109.59016 c -0.173842,-4.28548 -0.08395,-8.35887 0.302341,-13.700193 0.302356,-4.180769 0.70389,-11.098981 0.892298,-15.373802 L 55.119307,72.74376 53.702944,62.661719 C 52.288179,52.591058 52.283958,52.572394 49.962982,46.127328 c -2.11747,-5.879947 -2.823523,-7.157215 -3.420191,-6.187185 -0.08971,0.145841 0.851453,3.049398 2.091467,6.45235 2.233085,6.128225 2.268412,6.283202 3.707354,16.263456 l 1.452786,10.076271 -0.39819,8.662058 c -0.219005,4.764132 -0.625379,11.84191 -0.903053,15.728395 -0.449907,6.297157 -0.432406,15.466227 0.03391,17.770787 0.08853,0.43752 0.417797,0.7955 0.7317,0.7955 0.51278,0 0.545611,-0.61929 0.323335,-6.0988 z m 41.874857,-5.3033 c 0.0014,-0.24307 0.553947,-5.797353 1.228011,-12.342853 L 97.910553,80.043096 96.859318,70.049934 C 95.862174,60.570973 95.808084,59.263243 95.808084,44.635152 V 29.213536 l -2.057249,-5.287333 c -1.399793,-3.597601 -2.247211,-5.323917 -2.651651,-5.401805 -0.897856,-0.172911 -0.760076,0.417489 1.348806,5.779754 l 1.943211,4.941001 7.07e-4,15.026019 c 7.07e-4,14.302204 0.05332,15.527881 1.09236,25.444357 l 1.091621,10.418342 -1.101206,10.971638 c -0.605662,6.034404 -1.190156,11.568261 -1.298877,12.297471 -0.174716,1.17184 -0.111942,1.32582 0.540509,1.32582 0.406003,0 0.73928,-0.19887 0.74062,-0.44194 z M 110.82256,89.079907 C 111.50931,77.472342 111.45684,63.43826 110.63867,39.892 l -0.34538,-9.93974 -1.69576,-6.186506 c -1.27925,-4.667025 -1.84241,-6.214749 -2.29285,-6.301496 -0.32841,-0.06325 -0.5971,0.08063 -0.5971,0.319731 0,0.239098 0.77827,3.392969 1.72948,7.008604 l 1.72948,6.573881 0.39801,15.379572 c 0.54502,21.060726 0.49422,33.578037 -0.17857,44.000483 -0.53666,8.313631 -0.61829,8.885932 -1.41683,9.932871 -0.94683,1.24135 -1.05939,1.79848 -0.4073,2.01584 0.24202,0.0807 0.92798,-0.46991 1.52434,-1.22352 l 1.08428,-1.37021 z M 72.120007,102.30549 c 0,-0.1661 -0.323282,-2.411248 -0.718406,-4.989225 -0.421365,-2.749178 -0.832085,-7.850448 -0.993337,-12.337542 -0.26316,-7.322961 -0.21798,-8.22518 1.055933,-21.085338 0.731972,-7.389265 2.033904,-18.396885 2.893181,-24.461379 l 1.56232,-11.026348 -1.255288,-6.032602 c -1.070121,-5.142724 -1.350368,-6.032601 -1.899847,-6.032601 -0.354504,0 -0.644556,0.0778 -0.644556,0.172898 0,0.0951 0.550426,2.804476 1.223171,6.020849 l 1.223167,5.847949 -1.57951,11.214879 c -0.86873,6.168185 -2.149679,16.862895 -2.846557,23.766025 -1.184482,11.73326 -1.25317,13.069522 -1.054074,20.506097 0.268478,10.028284 1.377048,18.738328 2.384916,18.738328 0.356887,0 0.648887,-0.13589 0.648887,-0.30199 z M 48.300189,97.039016 c -0.564508,-9.957528 -0.61553,-10.341437 -1.37439,-10.341437 -0.642562,0 -0.680873,0.174238 -0.485849,2.209709 0.116443,1.215339 0.302931,4.118897 0.414417,6.452349 0.247276,5.175563 0.372024,5.833633 1.105855,5.833633 0.512317,0 0.549631,-0.45597 0.339967,-4.154254 z M 19.263775,80.64844 c 4.666905,-0.61308 8.597981,-1.21447 8.735724,-1.336429 0.137744,-0.121958 0.123296,-0.42747 -0.03211,-0.678914 -0.227138,-0.367519 -1.870985,-0.246353 -8.382171,0.617849 -10.4986367,1.393435 -10.3977184,1.374191 -10.3977184,1.982575 0,0.707796 0.4203325,0.68339 10.0762714,-0.585081 z M 156.10192,76.988932 c 2.33642,-1.782075 3.32473,-5.642655 2.15885,-8.433005 -1.19231,-2.853586 -4.38511,-4.58733 -7.00329,-3.802905 -4.59683,1.377243 -6.29393,6.91619 -3.39451,11.078942 1.75626,2.521511 5.72015,3.078146 8.23895,1.156968 z M 27.925833,75.223113 c 0,-0.586078 -0.488964,-0.690599 -6.706957,-1.43368 -5.483866,-0.65535 -5.313858,-0.659356 -5.313858,0.125211 0,0.571413 0.557722,0.718923 4.507806,1.19227 6.145627,0.736445 7.513009,0.757595 7.513009,0.116199 z M 131.63032,55.319716 131.46819,38.791095 130.07837,32.549828 c -0.7644,-3.432696 -1.38982,-6.336254 -1.38982,-6.452349 0,-0.306637 -0.9892,-0.259185 -1.1845,0.05682 -0.0911,0.147347 0.45403,2.971355 1.21132,6.275573 l 1.3769,6.007668 0.006,8.485282 c 0.003,4.666904 0.11065,12.184333 0.23849,16.705397 0.21113,7.466949 0.28847,8.220117 0.84403,8.220117 0.57335,0 0.60146,-1.0336 0.44947,-16.528621 z"
       id="path4603"
       inkscape:connector-curvature="0"
       transform="matrix(0.26458333,0,0,0.26458333,0,260.48741)" />
    <path
       style="fill:#ffffff;fill-opacity:1;stroke-width:0.35355338"
       d="m 130.68627,105.70107 c 0.49364,-0.80297 9.05637,-13.873916 9.18681,-14.023582 0.0703,-0.08064 1.96008,0.675081 4.19955,1.679378 4.0216,1.8035 4.11634,1.826301 7.69048,1.850906 3.5962,0.02476 3.60992,0.02813 2.20451,0.542021 -0.77782,0.284409 -2.20971,1.292223 -3.18198,2.239585 -2.62715,2.559842 -7.34417,4.763072 -14.14214,6.605512 -6.34226,1.71894 -6.33285,1.7172 -5.95723,1.10618 z"
       id="path4605"
       inkscape:connector-curvature="0"
       transform="matrix(0.26458333,0,0,0.26458333,0,260.48741)" />
  </g>
  <g
     inkscape:groupmode="layer"
     id="layer3"
     inkscape:label="Layer 2"
     transform="translate(0,-260.48741)">
    <path
       style="fill:none;stroke:#000000;stroke-width:0.26458332px;stroke-linecap:butt;stroke-linejoin:miter;stroke-opacity:1"
       d="m 34.986444,282.02365 1.984375,2.44739 2.182812,0.99219 h 3.307287"
       id="path4537"
       inkscape:connector-curvature="0" />
    <path
       style="fill:none;stroke:#000000;stroke-width:0.26458332px;stroke-linecap:butt;stroke-linejoin:miter;stroke-opacity:1"
       d="m 45.437485,281.36219 -2.976567,4.10104 v 0"
       id="path4539"
       inkscape:connector-curvature="0" />
    <path
       style="fill:none;stroke:#000000;stroke-width:0.26458332px;stroke-linecap:butt;stroke-linejoin:miter;stroke-opacity:1"
       d="m 19.243736,264.82573 0.661458,3.175 -0.859896,6.15156 -0.661458,6.68073 0.132292,4.0349 0.396875,2.71198"
       id="path4541"
       inkscape:connector-curvature="0" />
    <path
       style="fill:none;stroke:#000000;stroke-width:0.26458332px;stroke-linecap:butt;stroke-linejoin:miter;stroke-opacity:1"
       d="m 24.072381,265.42104 1.12448,2.91042 -0.06615,7.60677 0.595312,5.75469 -0.661458,6.48229"
       id="path4543"
       inkscape:connector-curvature="0" />
    <path
       style="fill:none;stroke:#000000;stroke-width:0.26458332px;stroke-linecap:butt;stroke-linejoin:miter;stroke-opacity:1"
       d="m 28.107277,265.15646 0.926042,3.43958 0.198437,6.87917 0.06615,6.15156 -0.330729,5.29167 -0.529167,0.66146"
       id="path4545"
       inkscape:connector-curvature="0" />
    <path
       style="fill:none;stroke:#000000;stroke-width:0.26458332px;stroke-linecap:butt;stroke-linejoin:miter;stroke-opacity:1"
       d="m 33.861965,267.40542 0.727604,3.24114 v 3.83646 l 0.132291,4.96094"
       id="path4547"
       inkscape:connector-curvature="0" />
    <path
       style="fill:none;stroke:#000000;stroke-width:0.26458332px;stroke-linecap:butt;stroke-linejoin:miter;stroke-opacity:1"
       d="m 36.970819,284.47104 -2.910422,4.43178"
       id="path4549"
       inkscape:connector-curvature="0"
       sodipodi:nodetypes="cc" />
    <path
       style="fill:none;stroke:#000000;stroke-width:0.26458332px;stroke-linecap:butt;stroke-linejoin:miter;stroke-opacity:1"
       d="m 12.437737,271.05116 1.216077,3.36759 0.748354,5.28526 -0.187088,4.34981 -0.280633,4.0224 0.140316,2.99342"
       id="path4551"
       inkscape:connector-curvature="0" />
    <path
       style="fill:none;stroke:#000000;stroke-width:0.26458332px;stroke-linecap:butt;stroke-linejoin:miter;stroke-opacity:1"
       d="m 12.437737,283.44578 0.233861,3.74177"
       id="path4553"
       inkscape:connector-curvature="0" />
    <path
       style="fill:none;stroke:#000000;stroke-width:0.26458332px;stroke-linecap:butt;stroke-linejoin:miter;stroke-opacity:1"
       d="m 1.9140008,278.34761 4.5368999,0.88868"
       id="path4555"
       inkscape:connector-curvature="0" />
    <path
       style="fill:none;stroke:#000000;stroke-width:0.26458332px;stroke-linecap:butt;stroke-linejoin:miter;stroke-opacity:1"
       d="m 2.310403,276.40125 4.7017637,1.94636"
       id="path4557"
       inkscape:connector-curvature="0" />
    <path
       style="fill:none;stroke:#000000;stroke-width:0.26458332px;stroke-linecap:butt;stroke-linejoin:miter;stroke-opacity:1"
       d="m 4.2526087,280.03141 3.086963,0.37418"
       id="path4559"
       inkscape:connector-curvature="0" />
    <path
       style="fill:none;stroke:#000000;stroke-width:0.26458332px;stroke-linecap:butt;stroke-linejoin:miter;stroke-opacity:1"
       d="m 2.4752667,281.99584 4.911078,-0.65481"
       id="path4563"
       inkscape:connector-curvature="0" />
    <path
       style="fill:none;stroke:#000000;stroke-width:0.26458332px;stroke-linecap:butt;stroke-linejoin:miter;stroke-opacity:1"
       d="m 2.6623557,283.25869 4.817533,-0.8419"
       id="path4565"
       inkscape:connector-curvature="0" />
    <path
       style="fill:none;stroke:#000000;stroke-width:0.26458332px;stroke-linecap:butt;stroke-linejoin:miter;stroke-opacity:1"
       d="m 2.9429887,286.48597 3.88209,-2.57247"
       id="path4567"
       inkscape:connector-curvature="0" />
  </g>
</svg>
